<?xml version="1.0" encoding="UTF-8" standalone="no"?>
<svg width="25px" height="25px" viewBox="0 0 25 25" version="1.1" xmlns="http://www.w3.org/2000/svg" xmlns:xlink="http://www.w3.org/1999/xlink" xmlns:sketch="http://www.bohemiancoding.com/sketch/ns">
    <title>tinyplanner-ui-3 3</title>
    <description>Created with Sketch (http://www.bohemiancoding.com/sketch)</description>
    <defs></defs>
    <g id="Page-1" stroke="none" stroke-width="1" fill="none" fill-rule="evenodd" sketch:type="MSPage">
        <g id="Add-a-task" sketch:type="MSArtboardGroup" transform="translate(-576.000000, -40.000000)" fill="#D8D8D8">
            <path d="M576.878626,45.1212671 C575.703528,43.9461682 575.709811,42.0529568 576.881384,40.8813839 C578.050573,39.712195 579.951217,39.7085765 581.121267,40.8786264 L588.195092,47.9524517 L595.268918,40.8786264 C596.444017,39.7035275 598.337228,39.7098111 599.508801,40.8813839 C600.67799,42.0505729 600.681608,43.9512171 599.511558,45.1212671 L592.437733,52.1950924 L599.511558,59.2689178 C600.686657,60.4440166 600.680374,62.3372281 599.508801,63.5088009 C598.339612,64.6779899 596.438968,64.6816084 595.268918,63.5115585 L588.195092,56.4377331 L581.121267,63.5115585 C579.946168,64.6866573 578.052957,64.6803738 576.881384,63.5088009 C575.712195,62.339612 575.708576,60.4389677 576.878626,59.2689178 L583.952452,52.1950924 L576.878626,45.1212671 Z" id="Rectangle-28" sketch:type="MSShapeGroup"></path>
        </g>
    </g>
</svg>