<svg width="40" height="56" xmlns="http://www.w3.org/2000/svg" xmlns:sketch="http://www.bohemiancoding.com/sketch/ns"><title>tinyplanner-ui-3 3</title><path d="M29 7h11v2h-37l3.119 43.643s.712 3.357 3.403 3.357h22.018c2.704 0 3.42-3.357 3.42-3.357l3.04-43.643h-2.376s-2.754 40.794-2.945 42.524c-.192 1.73-1.14 2.238-1.14 2.238h-22.018s-.944-.508-1.134-2.238c-.191-1.73-3.119-42.524-3.119-42.524h-5.268000000000001v-2h11v-2.429c0-2.525 2.015-4.571 4.5-4.571h9c2.485 0 4.5 2.047 4.5 4.571v2.429zm-2.25 0h-13.5v-2.429c0-1.262 1.007-2.286 2.25-2.286h9c1.242 0 2.25 1.024 2.25 2.286v2.429zm-7.75 6h2v36h-2v-36zm-8 0h2l1 36h-2l-1-36zm18 0h-2l-1 36h2l1-36z" sketch:type="MSShapeGroup" fill="#fff"/></svg>